<svg width="72" height="26" viewBox="0 0 72 26" fill="none" xmlns="http://www.w3.org/2000/svg">
<rect width="72" height="26" rx="13" fill="#FF6363"/>
<path d="M17.48 19.224C17.0213 19.224 16.5547 19.184 16.08 19.104C15.6053 19.024 15.1653 18.9253 14.76 18.808C14.36 18.6853 14.0347 18.5627 13.784 18.44L14.016 16.472C14.3573 16.6373 14.7307 16.7973 15.136 16.952C15.5413 17.1013 15.9653 17.2267 16.408 17.328C16.856 17.424 17.3067 17.472 17.76 17.472C18.368 17.472 18.8533 17.3573 19.216 17.128C19.584 16.8933 19.768 16.536 19.768 16.056C19.768 15.688 19.6693 15.3893 19.472 15.16C19.2747 14.9307 18.976 14.7307 18.576 14.56C18.176 14.384 17.6693 14.1947 17.056 13.992C16.4533 13.7947 15.9067 13.568 15.416 13.312C14.9253 13.0507 14.5333 12.7147 14.24 12.304C13.952 11.8933 13.808 11.3627 13.808 10.712C13.808 10.104 13.96 9.56267 14.264 9.088C14.568 8.61333 15.0213 8.24267 15.624 7.976C16.2267 7.70933 16.9707 7.576 17.856 7.576C18.56 7.576 19.2213 7.65333 19.84 7.808C20.4587 7.96267 20.9787 8.13067 21.4 8.312L21.208 10.232C20.5893 9.92267 20.0027 9.69333 19.448 9.544C18.8987 9.39467 18.3333 9.32 17.752 9.32C17.1333 9.32 16.6427 9.42667 16.28 9.64C15.9173 9.85333 15.736 10.1867 15.736 10.64C15.736 10.976 15.8293 11.248 16.016 11.456C16.2027 11.664 16.4693 11.8427 16.816 11.992C17.168 12.1413 17.5973 12.2933 18.104 12.448C18.904 12.6987 19.5813 12.976 20.136 13.28C20.6907 13.584 21.1093 13.9547 21.392 14.392C21.68 14.8293 21.824 15.3707 21.824 16.016C21.824 16.3893 21.76 16.768 21.632 17.152C21.504 17.5307 21.2773 17.8773 20.952 18.192C20.632 18.5013 20.1893 18.752 19.624 18.944C19.0587 19.1307 18.344 19.224 17.48 19.224ZM17.272 21.304L17.432 18.456H18.568L18.728 21.304H17.272ZM17.432 8.232L17.272 5.496H18.728L18.568 8.232H17.432ZM26.7769 19.224C26.3182 19.224 25.8515 19.184 25.3769 19.104C24.9022 19.024 24.4622 18.9253 24.0569 18.808C23.6569 18.6853 23.3315 18.5627 23.0809 18.44L23.3129 16.472C23.6542 16.6373 24.0275 16.7973 24.4329 16.952C24.8382 17.1013 25.2622 17.2267 25.7049 17.328C26.1529 17.424 26.6035 17.472 27.0569 17.472C27.6649 17.472 28.1502 17.3573 28.5129 17.128C28.8809 16.8933 29.0649 16.536 29.0649 16.056C29.0649 15.688 28.9662 15.3893 28.7689 15.16C28.5715 14.9307 28.2729 14.7307 27.8729 14.56C27.4729 14.384 26.9662 14.1947 26.3529 13.992C25.7502 13.7947 25.2035 13.568 24.7129 13.312C24.2222 13.0507 23.8302 12.7147 23.5369 12.304C23.2489 11.8933 23.1049 11.3627 23.1049 10.712C23.1049 10.104 23.2569 9.56267 23.5609 9.088C23.8649 8.61333 24.3182 8.24267 24.9209 7.976C25.5235 7.70933 26.2675 7.576 27.1529 7.576C27.8569 7.576 28.5182 7.65333 29.1369 7.808C29.7555 7.96267 30.2755 8.13067 30.6969 8.312L30.5049 10.232C29.8862 9.92267 29.2995 9.69333 28.7449 9.544C28.1955 9.39467 27.6302 9.32 27.0489 9.32C26.4302 9.32 25.9395 9.42667 25.5769 9.64C25.2142 9.85333 25.0329 10.1867 25.0329 10.64C25.0329 10.976 25.1262 11.248 25.3129 11.456C25.4995 11.664 25.7662 11.8427 26.1129 11.992C26.4649 12.1413 26.8942 12.2933 27.4009 12.448C28.2009 12.6987 28.8782 12.976 29.4329 13.28C29.9875 13.584 30.4062 13.9547 30.6889 14.392C30.9769 14.8293 31.1209 15.3707 31.1209 16.016C31.1209 16.3893 31.0569 16.768 30.9289 17.152C30.8009 17.5307 30.5742 17.8773 30.2489 18.192C29.9289 18.5013 29.4862 18.752 28.9209 18.944C28.3555 19.1307 27.6409 19.224 26.7769 19.224ZM26.5689 21.304L26.7289 18.456H27.8649L28.0249 21.304H26.5689ZM26.7289 8.232L26.5689 5.496H28.0249L27.8649 8.232H26.7289ZM36.0738 19.224C35.6151 19.224 35.1484 19.184 34.6738 19.104C34.1991 19.024 33.7591 18.9253 33.3538 18.808C32.9538 18.6853 32.6284 18.5627 32.3778 18.44L32.6098 16.472C32.9511 16.6373 33.3244 16.7973 33.7298 16.952C34.1351 17.1013 34.5591 17.2267 35.0018 17.328C35.4498 17.424 35.9004 17.472 36.3538 17.472C36.9618 17.472 37.4471 17.3573 37.8098 17.128C38.1778 16.8933 38.3618 16.536 38.3618 16.056C38.3618 15.688 38.2631 15.3893 38.0658 15.16C37.8684 14.9307 37.5698 14.7307 37.1698 14.56C36.7698 14.384 36.2631 14.1947 35.6498 13.992C35.0471 13.7947 34.5004 13.568 34.0098 13.312C33.5191 13.0507 33.1271 12.7147 32.8338 12.304C32.5458 11.8933 32.4018 11.3627 32.4018 10.712C32.4018 10.104 32.5538 9.56267 32.8578 9.088C33.1618 8.61333 33.6151 8.24267 34.2178 7.976C34.8204 7.70933 35.5644 7.576 36.4498 7.576C37.1538 7.576 37.8151 7.65333 38.4338 7.808C39.0524 7.96267 39.5724 8.13067 39.9938 8.312L39.8018 10.232C39.1831 9.92267 38.5964 9.69333 38.0418 9.544C37.4924 9.39467 36.9271 9.32 36.3458 9.32C35.7271 9.32 35.2364 9.42667 34.8738 9.64C34.5111 9.85333 34.3298 10.1867 34.3298 10.64C34.3298 10.976 34.4231 11.248 34.6098 11.456C34.7964 11.664 35.0631 11.8427 35.4098 11.992C35.7618 12.1413 36.1911 12.2933 36.6978 12.448C37.4978 12.6987 38.1751 12.976 38.7298 13.28C39.2844 13.584 39.7031 13.9547 39.9858 14.392C40.2738 14.8293 40.4178 15.3707 40.4178 16.016C40.4178 16.3893 40.3538 16.768 40.2257 17.152C40.0978 17.5307 39.8711 17.8773 39.5458 18.192C39.2258 18.5013 38.7831 18.752 38.2178 18.944C37.6524 19.1307 36.9378 19.224 36.0738 19.224ZM35.8658 21.304L36.0258 18.456H37.1618L37.3218 21.304H35.8658ZM36.0258 8.232L35.8658 5.496H37.3218L37.1618 8.232H36.0258ZM45.3706 19.224C44.912 19.224 44.4453 19.184 43.9706 19.104C43.496 19.024 43.056 18.9253 42.6506 18.808C42.2506 18.6853 41.9253 18.5627 41.6746 18.44L41.9066 16.472C42.248 16.6373 42.6213 16.7973 43.0266 16.952C43.432 17.1013 43.856 17.2267 44.2986 17.328C44.7466 17.424 45.1973 17.472 45.6506 17.472C46.2586 17.472 46.744 17.3573 47.1066 17.128C47.4746 16.8933 47.6586 16.536 47.6586 16.056C47.6586 15.688 47.56 15.3893 47.3626 15.16C47.1653 14.9307 46.8666 14.7307 46.4666 14.56C46.0666 14.384 45.56 14.1947 44.9466 13.992C44.344 13.7947 43.7973 13.568 43.3066 13.312C42.816 13.0507 42.424 12.7147 42.1306 12.304C41.8426 11.8933 41.6986 11.3627 41.6986 10.712C41.6986 10.104 41.8506 9.56267 42.1546 9.088C42.4586 8.61333 42.912 8.24267 43.5146 7.976C44.1173 7.70933 44.8613 7.576 45.7466 7.576C46.4506 7.576 47.112 7.65333 47.7306 7.808C48.3493 7.96267 48.8693 8.13067 49.2906 8.312L49.0986 10.232C48.48 9.92267 47.8933 9.69333 47.3386 9.544C46.7893 9.39467 46.224 9.32 45.6426 9.32C45.024 9.32 44.5333 9.42667 44.1706 9.64C43.808 9.85333 43.6266 10.1867 43.6266 10.64C43.6266 10.976 43.72 11.248 43.9066 11.456C44.0933 11.664 44.36 11.8427 44.7066 11.992C45.0586 12.1413 45.488 12.2933 45.9946 12.448C46.7946 12.6987 47.472 12.976 48.0266 13.28C48.5813 13.584 49 13.9547 49.2826 14.392C49.5706 14.8293 49.7146 15.3707 49.7146 16.016C49.7146 16.3893 49.6506 16.768 49.5226 17.152C49.3946 17.5307 49.168 17.8773 48.8426 18.192C48.5226 18.5013 48.08 18.752 47.5146 18.944C46.9493 19.1307 46.2346 19.224 45.3706 19.224ZM45.1626 21.304L45.3226 18.456H46.4586L46.6186 21.304H45.1626ZM45.3226 8.232L45.1626 5.496H46.6186L46.4586 8.232H45.3226ZM54.6675 19.224C54.2088 19.224 53.7422 19.184 53.2675 19.104C52.7928 19.024 52.3528 18.9253 51.9475 18.808C51.5475 18.6853 51.2222 18.5627 50.9715 18.44L51.2035 16.472C51.5448 16.6373 51.9182 16.7973 52.3235 16.952C52.7288 17.1013 53.1528 17.2267 53.5955 17.328C54.0435 17.424 54.4942 17.472 54.9475 17.472C55.5555 17.472 56.0408 17.3573 56.4035 17.128C56.7715 16.8933 56.9555 16.536 56.9555 16.056C56.9555 15.688 56.8568 15.3893 56.6595 15.16C56.4622 14.9307 56.1635 14.7307 55.7635 14.56C55.3635 14.384 54.8568 14.1947 54.2435 13.992C53.6408 13.7947 53.0942 13.568 52.6035 13.312C52.1128 13.0507 51.7208 12.7147 51.4275 12.304C51.1395 11.8933 50.9955 11.3627 50.9955 10.712C50.9955 10.104 51.1475 9.56267 51.4515 9.088C51.7555 8.61333 52.2088 8.24267 52.8115 7.976C53.4142 7.70933 54.1582 7.576 55.0435 7.576C55.7475 7.576 56.4088 7.65333 57.0275 7.808C57.6462 7.96267 58.1662 8.13067 58.5875 8.312L58.3955 10.232C57.7768 9.92267 57.1902 9.69333 56.6355 9.544C56.0862 9.39467 55.5208 9.32 54.9395 9.32C54.3208 9.32 53.8302 9.42667 53.4675 9.64C53.1048 9.85333 52.9235 10.1867 52.9235 10.64C52.9235 10.976 53.0168 11.248 53.2035 11.456C53.3902 11.664 53.6568 11.8427 54.0035 11.992C54.3555 12.1413 54.7848 12.2933 55.2915 12.448C56.0915 12.6987 56.7688 12.976 57.3235 13.28C57.8782 13.584 58.2968 13.9547 58.5795 14.392C58.8675 14.8293 59.0115 15.3707 59.0115 16.016C59.0115 16.3893 58.9475 16.768 58.8195 17.152C58.6915 17.5307 58.4648 17.8773 58.1395 18.192C57.8195 18.5013 57.3768 18.752 56.8115 18.944C56.2462 19.1307 55.5315 19.224 54.6675 19.224ZM54.4595 21.304L54.6195 18.456H55.7555L55.9155 21.304H54.4595ZM54.6195 8.232L54.4595 5.496H55.9155L55.7555 8.232H54.6195Z" fill="white"/>
</svg>
