<svg width="72" height="26" viewBox="0 0 72 26" fill="none" xmlns="http://www.w3.org/2000/svg">
<rect width="72" height="26" rx="13" fill="#125B50"/>
<path d="M35.48 19.224C35.0213 19.224 34.5547 19.184 34.08 19.104C33.6053 19.024 33.1653 18.9253 32.76 18.808C32.36 18.6853 32.0347 18.5627 31.784 18.44L32.016 16.472C32.3573 16.6373 32.7307 16.7973 33.136 16.952C33.5413 17.1013 33.9653 17.2267 34.408 17.328C34.856 17.424 35.3067 17.472 35.76 17.472C36.368 17.472 36.8533 17.3573 37.216 17.128C37.584 16.8933 37.768 16.536 37.768 16.056C37.768 15.688 37.6693 15.3893 37.472 15.16C37.2747 14.9307 36.976 14.7307 36.576 14.56C36.176 14.384 35.6693 14.1947 35.056 13.992C34.4533 13.7947 33.9067 13.568 33.416 13.312C32.9253 13.0507 32.5333 12.7147 32.24 12.304C31.952 11.8933 31.808 11.3627 31.808 10.712C31.808 10.104 31.96 9.56267 32.264 9.088C32.568 8.61333 33.0213 8.24267 33.624 7.976C34.2267 7.70933 34.9707 7.576 35.856 7.576C36.56 7.576 37.2213 7.65333 37.84 7.808C38.4587 7.96267 38.9787 8.13067 39.4 8.312L39.208 10.232C38.5893 9.92267 38.0027 9.69333 37.448 9.544C36.8987 9.39467 36.3333 9.32 35.752 9.32C35.1333 9.32 34.6427 9.42667 34.28 9.64C33.9173 9.85333 33.736 10.1867 33.736 10.64C33.736 10.976 33.8293 11.248 34.016 11.456C34.2027 11.664 34.4693 11.8427 34.816 11.992C35.168 12.1413 35.5973 12.2933 36.104 12.448C36.904 12.6987 37.5813 12.976 38.136 13.28C38.6907 13.584 39.1093 13.9547 39.392 14.392C39.68 14.8293 39.824 15.3707 39.824 16.016C39.824 16.3893 39.76 16.768 39.632 17.152C39.504 17.5307 39.2773 17.8773 38.952 18.192C38.632 18.5013 38.1893 18.752 37.624 18.944C37.0587 19.1307 36.344 19.224 35.48 19.224ZM35.272 21.304L35.432 18.456H36.568L36.728 21.304H35.272ZM35.432 8.232L35.272 5.496H36.728L36.568 8.232H35.432Z" fill="white"/>
</svg>
