<svg width="72" height="26" viewBox="0 0 72 26" fill="none" xmlns="http://www.w3.org/2000/svg">
<rect width="72" height="26" rx="13" fill="#F8B401"/>
<path d="M26.48 19.224C26.0213 19.224 25.5547 19.184 25.08 19.104C24.6053 19.024 24.1653 18.9253 23.76 18.808C23.36 18.6853 23.0347 18.5627 22.784 18.44L23.016 16.472C23.3573 16.6373 23.7307 16.7973 24.136 16.952C24.5413 17.1013 24.9653 17.2267 25.408 17.328C25.856 17.424 26.3067 17.472 26.76 17.472C27.368 17.472 27.8533 17.3573 28.216 17.128C28.584 16.8933 28.768 16.536 28.768 16.056C28.768 15.688 28.6693 15.3893 28.472 15.16C28.2747 14.9307 27.976 14.7307 27.576 14.56C27.176 14.384 26.6693 14.1947 26.056 13.992C25.4533 13.7947 24.9067 13.568 24.416 13.312C23.9253 13.0507 23.5333 12.7147 23.24 12.304C22.952 11.8933 22.808 11.3627 22.808 10.712C22.808 10.104 22.96 9.56267 23.264 9.088C23.568 8.61333 24.0213 8.24267 24.624 7.976C25.2267 7.70933 25.9707 7.576 26.856 7.576C27.56 7.576 28.2213 7.65333 28.84 7.808C29.4587 7.96267 29.9787 8.13067 30.4 8.312L30.208 10.232C29.5893 9.92267 29.0027 9.69333 28.448 9.544C27.8987 9.39467 27.3333 9.32 26.752 9.32C26.1333 9.32 25.6427 9.42667 25.28 9.64C24.9173 9.85333 24.736 10.1867 24.736 10.64C24.736 10.976 24.8293 11.248 25.016 11.456C25.2027 11.664 25.4693 11.8427 25.816 11.992C26.168 12.1413 26.5973 12.2933 27.104 12.448C27.904 12.6987 28.5813 12.976 29.136 13.28C29.6907 13.584 30.1093 13.9547 30.392 14.392C30.68 14.8293 30.824 15.3707 30.824 16.016C30.824 16.3893 30.76 16.768 30.632 17.152C30.504 17.5307 30.2773 17.8773 29.952 18.192C29.632 18.5013 29.1893 18.752 28.624 18.944C28.0587 19.1307 27.344 19.224 26.48 19.224ZM26.272 21.304L26.432 18.456H27.568L27.728 21.304H26.272ZM26.432 8.232L26.272 5.496H27.728L27.568 8.232H26.432ZM35.7769 19.224C35.3182 19.224 34.8515 19.184 34.3769 19.104C33.9022 19.024 33.4622 18.9253 33.0569 18.808C32.6569 18.6853 32.3315 18.5627 32.0809 18.44L32.3129 16.472C32.6542 16.6373 33.0275 16.7973 33.4329 16.952C33.8382 17.1013 34.2622 17.2267 34.7049 17.328C35.1529 17.424 35.6035 17.472 36.0569 17.472C36.6649 17.472 37.1502 17.3573 37.5129 17.128C37.8809 16.8933 38.0649 16.536 38.0649 16.056C38.0649 15.688 37.9662 15.3893 37.7689 15.16C37.5715 14.9307 37.2729 14.7307 36.8729 14.56C36.4729 14.384 35.9662 14.1947 35.3529 13.992C34.7502 13.7947 34.2035 13.568 33.7129 13.312C33.2222 13.0507 32.8302 12.7147 32.5369 12.304C32.2489 11.8933 32.1049 11.3627 32.1049 10.712C32.1049 10.104 32.2569 9.56267 32.5609 9.088C32.8649 8.61333 33.3182 8.24267 33.9209 7.976C34.5235 7.70933 35.2675 7.576 36.1529 7.576C36.8569 7.576 37.5182 7.65333 38.1369 7.808C38.7555 7.96267 39.2755 8.13067 39.6969 8.312L39.5049 10.232C38.8862 9.92267 38.2995 9.69333 37.7449 9.544C37.1955 9.39467 36.6302 9.32 36.0489 9.32C35.4302 9.32 34.9395 9.42667 34.5769 9.64C34.2142 9.85333 34.0329 10.1867 34.0329 10.64C34.0329 10.976 34.1262 11.248 34.3129 11.456C34.4995 11.664 34.7662 11.8427 35.1129 11.992C35.4649 12.1413 35.8942 12.2933 36.4009 12.448C37.2009 12.6987 37.8782 12.976 38.4329 13.28C38.9875 13.584 39.4062 13.9547 39.6889 14.392C39.9769 14.8293 40.1209 15.3707 40.1209 16.016C40.1209 16.3893 40.0569 16.768 39.9289 17.152C39.8009 17.5307 39.5742 17.8773 39.2489 18.192C38.9289 18.5013 38.4862 18.752 37.9209 18.944C37.3555 19.1307 36.6409 19.224 35.7769 19.224ZM35.5689 21.304L35.7289 18.456H36.8649L37.0249 21.304H35.5689ZM35.7289 8.232L35.5689 5.496H37.0249L36.8649 8.232H35.7289ZM45.0738 19.224C44.6151 19.224 44.1484 19.184 43.6738 19.104C43.1991 19.024 42.7591 18.9253 42.3538 18.808C41.9538 18.6853 41.6284 18.5627 41.3778 18.44L41.6098 16.472C41.9511 16.6373 42.3244 16.7973 42.7298 16.952C43.1351 17.1013 43.5591 17.2267 44.0018 17.328C44.4498 17.424 44.9004 17.472 45.3538 17.472C45.9618 17.472 46.4471 17.3573 46.8098 17.128C47.1778 16.8933 47.3618 16.536 47.3618 16.056C47.3618 15.688 47.2631 15.3893 47.0658 15.16C46.8684 14.9307 46.5698 14.7307 46.1698 14.56C45.7698 14.384 45.2631 14.1947 44.6498 13.992C44.0471 13.7947 43.5004 13.568 43.0098 13.312C42.5191 13.0507 42.1271 12.7147 41.8338 12.304C41.5458 11.8933 41.4018 11.3627 41.4018 10.712C41.4018 10.104 41.5538 9.56267 41.8578 9.088C42.1618 8.61333 42.6151 8.24267 43.2178 7.976C43.8204 7.70933 44.5644 7.576 45.4498 7.576C46.1538 7.576 46.8151 7.65333 47.4338 7.808C48.0524 7.96267 48.5724 8.13067 48.9938 8.312L48.8018 10.232C48.1831 9.92267 47.5964 9.69333 47.0418 9.544C46.4924 9.39467 45.9271 9.32 45.3458 9.32C44.7271 9.32 44.2364 9.42667 43.8738 9.64C43.5111 9.85333 43.3298 10.1867 43.3298 10.64C43.3298 10.976 43.4231 11.248 43.6098 11.456C43.7964 11.664 44.0631 11.8427 44.4098 11.992C44.7618 12.1413 45.1911 12.2933 45.6978 12.448C46.4978 12.6987 47.1751 12.976 47.7298 13.28C48.2844 13.584 48.7031 13.9547 48.9858 14.392C49.2738 14.8293 49.4178 15.3707 49.4178 16.016C49.4178 16.3893 49.3538 16.768 49.2257 17.152C49.0978 17.5307 48.8711 17.8773 48.5458 18.192C48.2258 18.5013 47.7831 18.752 47.2178 18.944C46.6524 19.1307 45.9378 19.224 45.0738 19.224ZM44.8658 21.304L45.0258 18.456H46.1618L46.3218 21.304H44.8658ZM45.0258 8.232L44.8658 5.496H46.3218L46.1618 8.232H45.0258Z" fill="white"/>
</svg>
