<svg width="11" height="14" viewBox="0 0 11 14" fill="none" xmlns="http://www.w3.org/2000/svg">
<path d="M0 8.5C0 11.5376 2.46243 14 5.5 14C7.17272 14 8.67103 13.2533 9.67977 12.075C2.02359 12.735 1.31985 7.18015 1.925 4.32023C0.74672 5.32897 0 6.82728 0 8.5Z" fill="#D73131"/>
<path d="M11 8.5C11 5.46243 8.53757 3 5.5 3C4.13515 3 2.88642 3.49714 1.925 4.32023C1.31985 7.18015 2.02359 12.735 9.67977 12.075C10.5029 11.1136 11 9.86485 11 8.5Z" fill="#FD4343"/>
<path d="M7.98762 7.936V9.64H2.70762V7.936H7.98762Z" fill="white"/>
</svg>
